<?xml version="1.0" standalone="no"?>
<!DOCTYPE svg PUBLIC "-//W3C//DTD SVG 20010904//EN"
 "http://www.w3.org/TR/2001/REC-SVG-20010904/DTD/svg10.dtd">
<svg version="1.0" xmlns="http://www.w3.org/2000/svg"
 width="520.000000pt" height="520.000000pt" viewBox="0 0 520.000000 520.000000"
 preserveAspectRatio="xMidYMid meet">
<metadata>
Created by potrace 1.11, written by Peter Selinger 2001-2013
</metadata>
<g transform="translate(0.000000,520.000000) scale(0.100000,-0.100000)"
fill="#000000" stroke="none">
<path d="M0 2600 l0 -2600 2600 0 2600 0 0 2600 0 2600 -2600 0 -2600 0 0
-2600z m1589 874 c112 -20 248 -65 339 -115 72 -38 175 -112 201 -143 15 -18
12 -25 -66 -193 l-38 -83 -81 59 c-180 128 -354 190 -559 198 -262 11 -441
-61 -512 -205 -24 -49 -28 -69 -27 -137 1 -139 59 -228 189 -290 33 -15 197
-62 365 -105 327 -83 407 -110 513 -174 182 -111 267 -261 267 -476 0 -171
-44 -284 -155 -396 -175 -177 -424 -253 -790 -240 -300 10 -522 73 -715 202
-36 24 -75 53 -88 63 l-22 20 57 130 c32 72 61 131 64 131 3 0 43 -25 89 -56
108 -72 174 -105 285 -142 136 -45 221 -57 410 -57 131 0 185 4 235 18 191 52
283 155 283 313 -1 84 -26 151 -79 205 -64 65 -163 102 -480 178 -161 38 -327
83 -369 100 -207 83 -347 224 -399 400 -19 64 -21 215 -5 293 39 189 202 364
421 451 183 73 430 92 667 51z m1521 -789 c0 -647 2 -767 16 -833 39 -192 132
-303 299 -355 90 -27 267 -29 365 -4 183 48 322 160 403 328 77 157 77 153 77
934 l0 685 185 0 185 0 0 -1120 0 -1120 -180 0 -180 0 -2 188 -3 187 -27 -45
c-39 -66 -132 -165 -197 -209 -168 -114 -332 -158 -555 -148 -240 11 -386 67
-522 202 -138 138 -204 303 -224 569 -5 72 -10 438 -10 814 l0 682 185 0 185
0 0 -755z"/>
</g>
</svg>
